<?xml version="1.0" encoding="UTF-8" standalone="no"?>
<!DOCTYPE svg PUBLIC "-//W3C//DTD SVG 1.1//EN"
 "http://www.w3.org/Graphics/SVG/1.1/DTD/svg11.dtd">
<!-- Generated by graphviz version 2.38.0 (20140413.2041)
 -->
<!-- Title: A Pages: 1 -->
<svg width="140pt" height="104pt"
 viewBox="0.00 0.00 140.00 104.00" xmlns="http://www.w3.org/2000/svg" xmlns:xlink="http://www.w3.org/1999/xlink">
<g id="graph0" class="graph" transform="scale(1 1) rotate(0) translate(4 100)">
<title>A</title>
<polygon fill="white" stroke="none" points="-4,4 -4,-100 136,-100 136,4 -4,4"/>
<!-- 1 -->
<g id="node1" class="node"><title>1</title>
<ellipse fill="none" stroke="black" cx="90" cy="-18" rx="18" ry="18"/>
<polyline fill="none" stroke="black" points="101.905,-31.5 78.0948,-31.5 "/>
<polyline fill="none" stroke="black" points="101.905,-4.5 78.0948,-4.5 "/>
<text text-anchor="middle" x="90" y="-14.3" font-family="Times New Roman,serif" font-size="14.00">1</text>
</g>
<!-- 2 -->
<g id="node2" class="node"><title>2</title>
<ellipse fill="none" stroke="black" cx="18" cy="-18" rx="18" ry="18"/>
<polyline fill="none" stroke="black" points="29.9052,-31.5 6.0948,-31.5 "/>
<polyline fill="none" stroke="black" points="29.9052,-4.5 6.0948,-4.5 "/>
<text text-anchor="middle" x="18" y="-14.3" font-family="Times New Roman,serif" font-size="14.00">2</text>
</g>
<!-- 1&#45;&gt;2 -->
<g id="edge1" class="edge"><title>1&#45;&gt;2</title>
<path fill="none" stroke="black" d="M71.8314,-18C64.131,-18 54.9743,-18 46.4166,-18"/>
<polygon fill="black" stroke="black" points="46.4133,-14.5001 36.4133,-18 46.4132,-21.5001 46.4133,-14.5001"/>
</g>
<!-- 3 -->
<g id="node3" class="node"><title>3</title>
<ellipse fill="none" stroke="black" cx="54" cy="-78" rx="18" ry="18"/>
<polyline fill="none" stroke="black" points="65.9052,-91.5 42.0948,-91.5 "/>
<polyline fill="none" stroke="black" points="65.9052,-64.5 42.0948,-64.5 "/>
<text text-anchor="middle" x="54" y="-74.3" font-family="Times New Roman,serif" font-size="14.00">3</text>
</g>
<!-- 4 -->
<g id="node4" class="node"><title>4</title>
<ellipse fill="none" stroke="black" cx="114" cy="-78" rx="18" ry="18"/>
<polyline fill="none" stroke="black" points="125.905,-91.5 102.095,-91.5 "/>
<polyline fill="none" stroke="black" points="125.905,-64.5 102.095,-64.5 "/>
<text text-anchor="middle" x="114" y="-74.3" font-family="Times New Roman,serif" font-size="14.00">4</text>
</g>
</g>
</svg>
