<?xml version="1.0" encoding="UTF-8" standalone="no"?>
<!-- Generator: Adobe Illustrator 25.0.0, SVG Export Plug-In . SVG Version: 6.00 Build 0)  -->

<svg
   version="1.0"
   id="svg12484"
   x="0px"
   y="0px"
   width="15.36px"
   height="15.35774px"
   viewBox="0 0 15.36 15.35774"
   enable-background="new 0 0 15.36 15.35774"
   xml:space="preserve"
   sodipodi:docname="DLX_1b_light_1.svg"
   inkscape:version="1.1.1 (3bf5ae0d25, 2021-09-20)"
   xmlns:inkscape="http://www.inkscape.org/namespaces/inkscape"
   xmlns:sodipodi="http://sodipodi.sourceforge.net/DTD/sodipodi-0.dtd"
   xmlns="http://www.w3.org/2000/svg"
   xmlns:svg="http://www.w3.org/2000/svg"><defs
   id="defs24" />
<sodipodi:namedview
   bordercolor="#666666"
   borderopacity="1.0"
   fit-margin-bottom="0"
   fit-margin-left="0"
   fit-margin-right="0"
   fit-margin-top="0"
   id="base"
   inkscape:current-layer="svg12484"
   inkscape:cx="10.558036"
   inkscape:cy="12.633929"
   inkscape:document-units="mm"
   inkscape:pageopacity="0.0"
   inkscape:pageshadow="2"
   inkscape:window-height="882"
   inkscape:window-maximized="0"
   inkscape:window-width="1600"
   inkscape:window-x="0"
   inkscape:window-y="18"
   inkscape:zoom="22.4"
   pagecolor="#ffffff"
   showgrid="false"
   units="mm"
   inkscape:pagecheckerboard="0">
	</sodipodi:namedview>

<g
   style="font-style:normal;font-variant:normal;font-weight:normal;font-stretch:normal;font-size:3.88056px;line-height:1.25;font-family:'Miriam Libre';-inkscape-font-specification:'Miriam Libre';letter-spacing:0px;word-spacing:0px;display:inline;fill:#cccccc;fill-opacity:1;stroke-width:0.264583"
   id="text1564"
   aria-label="1"
   transform="matrix(3.0992126,0,0,3.0992126,494.99427,365.52458)"><path
     id="path9676"
     style="font-style:normal;font-variant:normal;font-weight:normal;font-stretch:normal;font-family:'Miriam Libre';-inkscape-font-specification:'Miriam Libre';fill:#adadad;fill-opacity:1;stroke-width:0.264583"
     d="m -157.85316,-114.14498 h 1.23014 c 0.031,0 0.0543,-0.0233 0.0543,-0.0543 v -0.17462 c 0,-0.031 -0.0233,-0.0543 -0.0543,-0.0543 h -0.46567 v -2.40983 c 0,-0.031 -0.0233,-0.0543 -0.0543,-0.0543 h -0.11253 l -0.53164,0.27552 v 0.12418 c 0,0.031 0.0233,0.0543 0.0543,0.0543 h 0.34537 v 2.01013 h -0.46567 c -0.031,0 -0.0543,0.0233 -0.0543,0.0543 v 0.17462 c 0,0.031 0.0233,0.0543 0.0543,0.0543 z" /></g></svg>
