<?xml version="1.0" encoding="UTF-8" standalone="no"?>
<svg
   xmlns:dc="http://purl.org/dc/elements/1.1/"
   xmlns:cc="http://creativecommons.org/ns#"
   xmlns:rdf="http://www.w3.org/1999/02/22-rdf-syntax-ns#"
   xmlns:svg="http://www.w3.org/2000/svg"
   xmlns="http://www.w3.org/2000/svg"
   xmlns:sodipodi="http://sodipodi.sourceforge.net/DTD/sodipodi-0.dtd"
   xmlns:inkscape="http://www.inkscape.org/namespaces/inkscape"
   width="1.5405823mm"
   height="2.88556mm"
   viewBox="0 0 1.5405823 2.8855601"
   version="1.1"
   id="svg7926"
   inkscape:version="1.0rc1 (09960d6f05, 2020-04-09)"
   sodipodi:docname="DLX_2b_light_0.svg">
  <defs
     id="defs7920" />
  <sodipodi:namedview
     id="base"
     pagecolor="#ffffff"
     bordercolor="#666666"
     borderopacity="1.0"
     inkscape:pageopacity="0.0"
     inkscape:pageshadow="2"
     inkscape:zoom="15.839192"
     inkscape:cx="26.100372"
     inkscape:cy="21.721522"
     inkscape:document-units="mm"
     inkscape:current-layer="layer1"
     inkscape:document-rotation="0"
     showgrid="false"
     inkscape:window-width="1858"
     inkscape:window-height="1058"
     inkscape:window-x="54"
     inkscape:window-y="-8"
     inkscape:window-maximized="1" />
  <metadata
     id="metadata7923">
    <rdf:RDF>
      <cc:Work
         rdf:about="">
        <dc:format>image/svg+xml</dc:format>
        <dc:type
           rdf:resource="http://purl.org/dc/dcmitype/StillImage" />
        <dc:title />
      </cc:Work>
    </rdf:RDF>
  </metadata>
  <g
     inkscape:label="Layer 1"
     inkscape:groupmode="layer"
     id="layer1"
     transform="translate(250.23458,29.342015)">
    <g
       style="font-style:normal;font-variant:normal;font-weight:normal;font-stretch:normal;font-size:3.88056px;line-height:1.25;font-family:'Miriam Libre';-inkscape-font-specification:'Miriam Libre';letter-spacing:0px;word-spacing:0px;display:inline;fill:#cccccc;fill-opacity:1;stroke-width:0.264583"
       id="text1570"
       aria-label="2">
      <path
         id="path10825"
         style="font-style:normal;font-variant:normal;font-weight:normal;font-stretch:normal;font-family:'Miriam Libre';-inkscape-font-specification:'Miriam Libre';fill:#cccccc;fill-opacity:1;stroke-width:0.264583"
         d="m -250.09488,-26.456455 h 1.25342 c 0.0233,0 0.0427,-0.0194 0.0427,-0.04657 v -0.201789 c 0,-0.02716 -0.0194,-0.04657 -0.0427,-0.04657 h -1.09044 v -0.201789 c 0,-0.364773 0.17851,-0.411339 0.64805,-0.714023 0.35314,-0.232834 0.58985,-0.434623 0.58985,-0.838201 0,-0.422981 -0.2988,-0.69462 -0.76835,-0.69462 -0.23672,0 -0.48507,0.07373 -0.69074,0.20567 -0.0233,0.01164 -0.0349,0.03492 -0.0349,0.05821 0,0.01164 0.004,0.02328 0.0117,0.03493 l 0.0815,0.13582 c 0.0116,0.0194 0.0272,0.03104 0.0427,0.03104 0.0117,0 0.0233,-0.0039 0.0349,-0.01164 0.1591,-0.09313 0.34537,-0.162983 0.53164,-0.162983 0.28328,0 0.48118,0.159103 0.48118,0.434623 0,0.228953 -0.14746,0.380294 -0.37641,0.516114 -0.65193,0.388056 -0.85372,0.496712 -0.85372,1.03611 v 0.333728 c 0,0.06985 0.0621,0.131939 0.1397,0.131939 z" />
    </g>
  </g>
</svg>
