<?xml version="1.0" encoding="UTF-8" standalone="no"?>
<!-- Generator: Adobe Illustrator 25.0.0, SVG Export Plug-In . SVG Version: 6.00 Build 0)  -->

<svg
   version="1.0"
   id="svg12484"
   x="0px"
   y="0px"
   width="15.36px"
   height="15.35774px"
   viewBox="0 0 15.36 15.35774"
   enable-background="new 0 0 15.36 15.35774"
   xml:space="preserve"
   sodipodi:docname="DLX_PencilButtonLight_1.svg"
   inkscape:version="1.1.1 (3bf5ae0d25, 2021-09-20)"
   xmlns:inkscape="http://www.inkscape.org/namespaces/inkscape"
   xmlns:sodipodi="http://sodipodi.sourceforge.net/DTD/sodipodi-0.dtd"
   xmlns="http://www.w3.org/2000/svg"
   xmlns:svg="http://www.w3.org/2000/svg"><defs
   id="defs881" />
<sodipodi:namedview
   bordercolor="#666666"
   borderopacity="1.0"
   fit-margin-bottom="0"
   fit-margin-left="0"
   fit-margin-right="0"
   fit-margin-top="0"
   id="base"
   inkscape:current-layer="svg12484"
   inkscape:cx="6.2578125"
   inkscape:cy="7.25"
   inkscape:document-units="mm"
   inkscape:pageopacity="0.0"
   inkscape:pageshadow="2"
   inkscape:window-height="882"
   inkscape:window-maximized="0"
   inkscape:window-width="1600"
   inkscape:window-x="0"
   inkscape:window-y="18"
   inkscape:zoom="64"
   pagecolor="#ffffff"
   showgrid="false"
   units="mm"
   inkscape:pagecheckerboard="0">
	</sodipodi:namedview>

<g
   style="stroke-width:2.26383"
   id="g6491"
   transform="matrix(0.29990998,-0.29990998,-0.29990998,-0.29990998,268.53619,460.4892)"
   inkscape:transform-center-x="-0.0018488152"
   inkscape:transform-center-y="0.21535407"><path
     sodipodi:nodetypes="ccc"
     inkscape:connector-curvature="0"
     d="m 311.38352,1184.265 c 0.0135,-1.0067 -0.0119,0.024 0.002,-3.0289 2.95799,0.028 2.061,-0.013 2.9699,0"
     style="fill:#3f2e51;fill-opacity:1;stroke:none;stroke-width:0.226383"
     id="path6477" /><path
     sodipodi:nodetypes="cccccc"
     inkscape:connector-curvature="0"
     d="m 314.34897,1181.2403 c 4.64437,0.086 0,0 4.62789,0.086 l -7.56528,7.6215 h -1e-5 v 0 c -0.028,-4.6925 0.006,-0.01 -0.028,-4.6925"
     style="fill:#6e607b;fill-opacity:1;stroke:none;stroke-width:0.226383"
     id="path6479" /><path
     sodipodi:nodetypes="cccccsc"
     inkscape:connector-curvature="0"
     d="m 323.93295,1201.5804 c -2.34017,-2.2948 0,0 -2.34017,-2.2948 8.02576,-7.9187 0,0 8.02576,-7.9187 2.21154,2.1629 0,0 2.21154,2.1629 -7.83767,8.0625 0,0 -7.83767,8.0625 -0.0205,0 -0.0475,-0.01 -0.0597,-0.012 z"
     id="path6481"
     style="fill:#563d6c;fill-opacity:1;stroke:none;stroke-width:0.226383" /><path
     sodipodi:nodetypes="ccccccsc"
     inkscape:connector-curvature="0"
     d="m 321.23067,1198.8781 c -2.34017,-2.2948 0,0 -2.34017,-2.2948 8.02576,-7.9187 0,0 8.02576,-7.9187 2.21154,2.1629 0,0 2.21154,2.1629 0.0122,0.024 0.008,0.07 -0.01,0.1038 -7.82793,7.9587 0.01,-0.1038 -7.82793,7.9587 -0.0205,0 -0.0475,-0.01 -0.0597,-0.012 z"
     id="path6483"
     style="fill:#4a4450;fill-opacity:1;stroke:none;stroke-width:0.226383" /><path
     sodipodi:nodetypes="ccccccc"
     inkscape:connector-curvature="0"
     d="m 311.4841,1189.3434 0.0422,-0.043 c 2.34774,-2.2785 -0.0422,0.043 2.34774,-2.2785 6.92971,6.9773 0,0 6.92971,6.9773 -2.21154,2.2969 0,0 -2.17694,2.2764 -0.0119,0.011 -0.027,0.02 -0.0346,0.02 z"
     id="path6485"
     style="fill:#696949;fill-opacity:1;stroke:none;stroke-width:0.226383" /><path
     sodipodi:nodetypes="ccccccc"
     inkscape:connector-curvature="0"
     d="m 321.06205,1193.7492 c -6.90594,-7.014 0.025,0.015 -6.90594,-7.014 0,-0.016 2.66229,-2.6753 2.6785,-2.6753 6.9535,7.0454 0,0 6.9535,7.0454 -2.72606,2.6439 0,0 -2.7012,2.659 -0.005,0 -0.016,-0.01 -0.025,-0.015 z"
     id="path6487"
     style="fill:#696949;fill-opacity:1;stroke:none;stroke-width:0.226383" /><path
     sodipodi:nodetypes="ccccc"
     inkscape:connector-curvature="0"
     d="m 317.13942,1183.7605 c 9.7e-4,-0.016 2.34018,-2.3596 2.35531,-2.3596 7.08321,6.9221 0,0 7.08321,6.9221 -2.52285,2.5034 0,0 -2.52285,2.5034 -6.91567,-7.0659 0,0 -6.91567,-7.0659 z"
     id="path6489"
     style="fill:#696949;fill-opacity:1;stroke:none;stroke-width:0.226383" /></g></svg>
