<?xml version="1.0" encoding="UTF-8" standalone="no"?>
<svg
   xmlns:dc="http://purl.org/dc/elements/1.1/"
   xmlns:cc="http://creativecommons.org/ns#"
   xmlns:rdf="http://www.w3.org/1999/02/22-rdf-syntax-ns#"
   xmlns:svg="http://www.w3.org/2000/svg"
   xmlns="http://www.w3.org/2000/svg"
   xmlns:sodipodi="http://sodipodi.sourceforge.net/DTD/sodipodi-0.dtd"
   xmlns:inkscape="http://www.inkscape.org/namespaces/inkscape"
   width="2.9332371mm"
   height="2.6027999mm"
   viewBox="0 0 2.9332371 2.6028"
   version="1.1"
   id="svg1913"
   inkscape:version="1.0rc1 (09960d6f05, 2020-04-09)"
   sodipodi:docname="DLX_ScreenButton_light_1.svg">
  <defs
     id="defs1907" />
  <sodipodi:namedview
     id="base"
     pagecolor="#ffffff"
     bordercolor="#666666"
     borderopacity="1.0"
     inkscape:pageopacity="0.0"
     inkscape:pageshadow="2"
     inkscape:zoom="22.4"
     inkscape:cx="15.516766"
     inkscape:cy="16.709953"
     inkscape:document-units="mm"
     inkscape:current-layer="layer1"
     inkscape:document-rotation="0"
     showgrid="false"
     inkscape:window-width="1858"
     inkscape:window-height="1058"
     inkscape:window-x="54"
     inkscape:window-y="-8"
     inkscape:window-maximized="1" />
  <metadata
     id="metadata1910">
    <rdf:RDF>
      <cc:Work
         rdf:about="">
        <dc:format>image/svg+xml</dc:format>
        <dc:type
           rdf:resource="http://purl.org/dc/dcmitype/StillImage" />
        <dc:title />
      </cc:Work>
    </rdf:RDF>
  </metadata>
  <g
     inkscape:label="Layer 1"
     inkscape:groupmode="layer"
     id="layer1"
     transform="translate(272.0976,85.141116)">
    <path
       d="m -269.27993,-84.966304 c 0.002,-0.03263 -0.0443,-0.0592 -0.0989,-0.0592 0,0 -1.18636,0.04493 -2.5042,0 -0.0545,-0.0019 -0.10197,0.02668 -0.0989,0.0592 0.0953,0.995389 0,2.105354 0,2.105354 0,0.0359 0.0443,0.06506 0.0989,0.06506 0,0 1.16995,-0.04236 2.5042,0 0.0545,0.0017 0.0989,-0.02916 0.0989,-0.06506 0,0 -0.0599,-0.892343 0,-2.105354 z"
       style="clip-rule:evenodd;display:inline;fill:#28202d;fill-opacity:1;fill-rule:evenodd;stroke:#483956;stroke-width:0.231;stroke-miterlimit:4;stroke-dasharray:none;stroke-opacity:1"
       id="path1827"
       inkscape:connector-curvature="0"
       sodipodi:nodetypes="sssssssss" />
    <path
       d="m -269.63421,-84.689263 c 0,-0.0241 -0.0327,-0.04366 -0.0729,-0.04366 h -1.84759 c -0.0403,0 -0.0729,0.01957 -0.0729,0.04366 v 1.552791 c 0,0.02648 0.0327,0.04798 0.0729,0.04798 h 1.84759 c 0.0403,0 0.0729,-0.0215 0.0729,-0.04798 z"
       style="clip-rule:evenodd;display:inline;fill:#a6a6a6;fill-opacity:0.38039216;fill-rule:evenodd;stroke:none;stroke-width:0.0658625;stroke-miterlimit:4;stroke-dasharray:none;stroke-opacity:0.682353"
       id="path1830"
       inkscape:connector-curvature="0"
       sodipodi:nodetypes="sssssssss" />
  </g>
</svg>
