<?xml version="1.0" encoding="UTF-8" standalone="no"?>
<svg
   xmlns:dc="http://purl.org/dc/elements/1.1/"
   xmlns:cc="http://creativecommons.org/ns#"
   xmlns:rdf="http://www.w3.org/1999/02/22-rdf-syntax-ns#"
   xmlns:svg="http://www.w3.org/2000/svg"
   xmlns="http://www.w3.org/2000/svg"
   xmlns:sodipodi="http://sodipodi.sourceforge.net/DTD/sodipodi-0.dtd"
   xmlns:inkscape="http://www.inkscape.org/namespaces/inkscape"
   width="5.4186702mm"
   height="5.41787mm"
   viewBox="0 0 5.4186701 5.41787"
   version="1.1"
   id="svg1215"
   inkscape:version="1.0rc1 (09960d6f05, 2020-04-09)"
   sodipodi:docname="DLX_Button_0a.svg">
  <defs
     id="defs1209" />
  <sodipodi:namedview
     id="base"
     pagecolor="#ffffff"
     bordercolor="#666666"
     borderopacity="1.0"
     inkscape:pageopacity="0.0"
     inkscape:pageshadow="2"
     inkscape:zoom="32"
     inkscape:cx="5.5686955"
     inkscape:cy="10.015042"
     inkscape:document-units="mm"
     inkscape:current-layer="layer1"
     inkscape:document-rotation="0"
     showgrid="false"
     inkscape:window-width="1858"
     inkscape:window-height="1058"
     inkscape:window-x="54"
     inkscape:window-y="-8"
     inkscape:window-maximized="1" />
  <metadata
     id="metadata1212">
    <rdf:RDF>
      <cc:Work
         rdf:about="">
        <dc:format>image/svg+xml</dc:format>
        <dc:type
           rdf:resource="http://purl.org/dc/dcmitype/StillImage" />
        <dc:title />
      </cc:Work>
    </rdf:RDF>
  </metadata>
  <g
     inkscape:label="Layer 1"
     inkscape:groupmode="layer"
     id="layer1">
    <ellipse
       style="fill:#282030;fill-opacity:1;stroke:none;stroke-width:0.264583"
       id="path1286"
       cx="2.7093954"
       cy="2.7088785"
       rx="2.7095001"
       ry="2.7090001" />
    <circle
       style="fill:#6e6375;fill-opacity:0.933333;stroke:none;stroke-width:0.264583"
       id="path1284"
       cx="2.709475"
       cy="2.567802"
       r="2.2495" />
    <circle
       style="fill:#392c3f;fill-opacity:1;stroke:none;stroke-width:0.264583"
       id="path1282"
       cx="2.709475"
       cy="2.7088535"
       r="2.2495" />
    <g
       style="fill:#8a8a8a;fill-opacity:1"
       id="g5904">
      <path
         sodipodi:nodetypes="ccc"
         inkscape:connector-curvature="0"
         d="m 1.2983662,3.7371372 c 0.00211,0.1568786 -0.00186,-0.00371 3e-4,0.4720005 0.4609493,-0.00438 0.3211699,0.00206 0.4628046,-6.879e-4"
         style="opacity:0.96;fill:#8a8a8a;fill-opacity:1;stroke:none;stroke-width:0.0352777"
         id="path3828" />
      <path
         sodipodi:nodetypes="cccccc"
         inkscape:connector-curvature="0"
         d="m 1.7604794,4.2084861 c 0.7237413,-0.01338 0,9.8e-6 0.7211736,-0.013367 L 1.3027389,3.0074454 h -8e-7 v 0 c -0.00437,0.7312404 8.624e-4,0.00152 -0.00437,0.7312404"
         style="opacity:0.96;fill:#8a8a8a;fill-opacity:1;stroke:none;stroke-width:0.0352777"
         id="path3826" />
      <path
         sodipodi:nodetypes="cccccsc"
         inkscape:connector-curvature="0"
         d="m 3.2539697,1.0388522 c -0.3646738,0.3575992 0,0 -0.3646738,0.3575992 1.2506713,1.233995 0,0 1.2506713,1.233995 0.3446288,-0.3370491 0,0 0.3446288,-0.3370491 -1.2213606,-1.2563973 0,0 -1.2213606,-1.2563973 -0.0032,0 -0.00741,8.399e-4 -0.00926,0.00185 z"
         id="path3830"
         style="opacity:0.96;fill:#8a8a8a;fill-opacity:1;stroke:none;stroke-width:0.0352777" />
      <path
         sodipodi:nodetypes="ccccccsc"
         inkscape:connector-curvature="0"
         d="m 2.8328684,1.4599535 c -0.3646738,0.3575992 0,0 -0.3646738,0.3575992 1.2506704,1.233995 0,0 1.2506704,1.233995 0.3446292,-0.3370491 0,0 0.3446292,-0.3370491 0.00185,-0.0037 0.00119,-0.010949 -0.00151,-0.016171 C 2.84214,1.4581001 4.0634942,2.7144986 2.84214,1.4581001 c -0.0032,0 -0.00741,8.388e-4 -0.00926,0.00185 z"
         id="path3832"
         style="opacity:0.96;fill:#8a8a8a;fill-opacity:1;stroke:none;stroke-width:0.0352777" />
      <path
         sodipodi:nodetypes="ccccccc"
         inkscape:connector-curvature="0"
         d="m 1.3140406,2.9457671 0.00657,0.00674 c 0.3658533,0.355072 -0.00657,-0.00674 0.3658533,0.355072 1.0798714,-1.0872826 0,0 1.0798714,-1.0872826 -0.3446304,-0.3579382 0,0 -0.3392387,-0.3547362 -0.00185,-0.00169 -0.00421,-0.0032 -0.00539,-0.0032 z"
         id="path3834"
         style="opacity:0.96;fill:#8a8a8a;fill-opacity:1;stroke:none;stroke-width:0.0352777" />
      <path
         sodipodi:nodetypes="ccccccc"
         inkscape:connector-curvature="0"
         d="m 2.806592,2.2592035 c -1.0761662,1.0930104 0.00388,-0.00235 -1.0761662,1.0930104 0,0.00253 0.4148689,0.41689 0.4173953,0.41689 1.0835774,-1.0978946 0,0 1.0835774,-1.0978946 -0.4248065,-0.4120058 0,0 -0.4209326,-0.4143635 -8.387e-4,-1.5e-4 -0.00253,8.388e-4 -0.00388,0.00235 z"
         id="path3836"
         style="opacity:0.96;fill:#8a8a8a;fill-opacity:1;stroke:none;stroke-width:0.0352777" />
      <path
         sodipodi:nodetypes="ccccc"
         inkscape:connector-curvature="0"
         d="m 2.1953211,3.8157624 c 1.5e-4,0.00254 0.3646737,0.3677057 0.3670322,0.3677057 1.1037901,-1.0786935 0,0 1.1037901,-1.0786935 -0.3931398,-0.390108 0,0 -0.3931398,-0.390108 -1.0776825,1.1010958 0,0 -1.0776825,1.1010958 z"
         id="path3838"
         style="opacity:0.96;fill:#8a8a8a;fill-opacity:1;stroke:none;stroke-width:0.0352777" />
    </g>
    <g
       id="g5142">
      <path
         id="path14"
         style="fill:#785b93;fill-opacity:0.74902;stroke:none;stroke-width:0.0352777"
         d="m 1.7604794,4.2084861 c 0.7237413,-0.01338 0,9.8e-6 0.7211736,-0.013367 L 1.3027389,3.0074454 h -8e-7 v 0 c -0.00437,0.7312404 8.624e-4,0.00152 -0.00437,0.7312404"
         inkscape:connector-curvature="0"
         sodipodi:nodetypes="cccccc" />
      <path
         id="path1326"
         style="fill:#52346d;fill-opacity:0.74902;stroke:none;stroke-width:0.0352777"
         d="m 1.2983662,3.7371372 c 0.00211,0.1568786 -0.00186,-0.00371 3e-4,0.4720005 0.4609493,-0.00438 0.3211699,0.00206 0.4628046,-6.879e-4"
         inkscape:connector-curvature="0"
         sodipodi:nodetypes="ccc" />
      <path
         style="fill:#2e0e4d;fill-opacity:0.75;stroke:none;stroke-width:0.0352777"
         id="path4"
         d="m 3.2539697,1.0388522 c -0.3646738,0.3575992 0,0 -0.3646738,0.3575992 1.2506713,1.233995 0,0 1.2506713,1.233995 0.3446288,-0.3370491 0,0 0.3446288,-0.3370491 -1.2213606,-1.2563973 0,0 -1.2213606,-1.2563973 -0.0032,0 -0.00741,8.399e-4 -0.00926,0.00185 z"
         inkscape:connector-curvature="0"
         sodipodi:nodetypes="cccccsc" />
      <path
         style="fill:#5a436e;fill-opacity:0.74902;stroke:none;stroke-width:0.0352777"
         id="path6"
         d="m 2.8328684,1.4599535 c -0.3646738,0.3575992 0,0 -0.3646738,0.3575992 1.2506704,1.233995 0,0 1.2506704,1.233995 0.3446292,-0.3370491 0,0 0.3446292,-0.3370491 0.00185,-0.0037 0.00119,-0.010949 -0.00151,-0.016171 C 2.84214,1.4581001 4.0634942,2.7144986 2.84214,1.4581001 c -0.0032,0 -0.00741,8.388e-4 -0.00926,0.00185 z"
         inkscape:connector-curvature="0"
         sodipodi:nodetypes="ccccccsc" />
      <path
         style="fill:#644085;fill-opacity:0.74902;stroke:none;stroke-width:0.0352777"
         id="path8"
         d="m 1.3140406,2.9457671 0.00657,0.00674 c 0.3658533,0.355072 -0.00657,-0.00674 0.3658533,0.355072 1.0798714,-1.0872826 0,0 1.0798714,-1.0872826 -0.3446304,-0.3579382 0,0 -0.3392387,-0.3547362 -0.00185,-0.00169 -0.00421,-0.0032 -0.00539,-0.0032 z"
         inkscape:connector-curvature="0"
         sodipodi:nodetypes="ccccccc" />
      <path
         style="fill:#644085;fill-opacity:0.74902;stroke:none;stroke-width:0.0352777"
         id="path10"
         d="m 2.806592,2.2592035 c -1.0761662,1.0930104 0.00388,-0.00235 -1.0761662,1.0930104 0,0.00253 0.4148689,0.41689 0.4173953,0.41689 1.0835774,-1.0978946 0,0 1.0835774,-1.0978946 -0.4248065,-0.4120058 0,0 -0.4209326,-0.4143635 -8.387e-4,-1.5e-4 -0.00253,8.388e-4 -0.00388,0.00235 z"
         inkscape:connector-curvature="0"
         sodipodi:nodetypes="ccccccc" />
      <path
         style="fill:#644085;fill-opacity:0.74902;stroke:none;stroke-width:0.0352777"
         id="path12"
         d="m 2.1953211,3.8157624 c 1.5e-4,0.00254 0.3646737,0.3677057 0.3670322,0.3677057 1.1037901,-1.0786935 0,0 1.1037901,-1.0786935 -0.3931398,-0.390108 0,0 -0.3931398,-0.390108 -1.0776825,1.1010958 0,0 -1.0776825,1.1010958 z"
         inkscape:connector-curvature="0"
         sodipodi:nodetypes="ccccc" />
    </g>
  </g>
</svg>
