<?xml version="1.0" encoding="UTF-8" standalone="no"?>
<svg
   xmlns:dc="http://purl.org/dc/elements/1.1/"
   xmlns:cc="http://creativecommons.org/ns#"
   xmlns:rdf="http://www.w3.org/1999/02/22-rdf-syntax-ns#"
   xmlns:svg="http://www.w3.org/2000/svg"
   xmlns="http://www.w3.org/2000/svg"
   xmlns:sodipodi="http://sodipodi.sourceforge.net/DTD/sodipodi-0.dtd"
   xmlns:inkscape="http://www.inkscape.org/namespaces/inkscape"
   width="5.4186702mm"
   height="5.4178686mm"
   viewBox="0 0 5.4186701 5.4178686"
   version="1.1"
   id="svg12484"
   inkscape:version="1.0rc1 (09960d6f05, 2020-04-09)"
   sodipodi:docname="DLX_Button_1a.svg">
  <defs
     id="defs12478" />
  <sodipodi:namedview
     id="base"
     pagecolor="#ffffff"
     bordercolor="#666666"
     borderopacity="1.0"
     inkscape:pageopacity="0.0"
     inkscape:pageshadow="2"
     inkscape:zoom="45.254834"
     inkscape:cx="11.405211"
     inkscape:cy="9.1573983"
     inkscape:document-units="mm"
     inkscape:current-layer="g12476"
     showgrid="false"
     fit-margin-top="0"
     fit-margin-left="0"
     fit-margin-right="0"
     fit-margin-bottom="0"
     inkscape:window-width="1858"
     inkscape:window-height="1058"
     inkscape:window-x="54"
     inkscape:window-y="-8"
     inkscape:window-maximized="1"
     units="mm"
     inkscape:document-rotation="0" />
  <metadata
     id="metadata12481">
    <rdf:RDF>
      <cc:Work
         rdf:about="">
        <dc:format>image/svg+xml</dc:format>
        <dc:type
           rdf:resource="http://purl.org/dc/dcmitype/StillImage" />
        <dc:title />
      </cc:Work>
    </rdf:RDF>
  </metadata>
  <g
     inkscape:label="Layer 1"
     inkscape:groupmode="layer"
     id="layer1"
     transform="translate(-155.37735,-114.28067)">
    <g
       id="g12476"
       transform="matrix(0.15583204,0,0,-0.15583204,113.15218,302.42225)"
       style="stroke-width:2.26383">
      <ellipse
         transform="scale(1,-1)"
         ry="17.385063"
         rx="17.38731"
         cy="-1189.9524"
         cx="288.35321"
         id="path1908-3"
         style="fill:#282030;fill-opacity:1;stroke-width:3.84368" />
      <ellipse
         transform="scale(1,-1)"
         ry="14.435412"
         rx="14.538089"
         cy="-1189.0377"
         cx="288.2496"
         id="path1906-1"
         style="fill:#6e6375;fill-opacity:1;stroke-width:3.84368" />
      <ellipse
         transform="scale(1,-1)"
         ry="14.435412"
         rx="14.483542"
         cy="-1189.9529"
         cx="288.30496"
         id="path1904-9"
         style="fill:#2e2432;fill-opacity:1;stroke-width:3.8437" />
      <g
         id="g1951"
         transform="translate(-32.085827)" />
      <g
         id="g6533"
         style="fill:#171717;fill-opacity:1">
        <path
           id="path3166"
           style="fill:#171717;fill-opacity:1;stroke:none;stroke-width:0.226383"
           d="m 282.26314,1181.2403 c 4.64437,0.086 0,0 4.62789,0.086 l -7.56528,7.6215 h -1e-5 v 0 c -0.028,-4.6925 0.006,-0.01 -0.028,-4.6925"
           inkscape:connector-curvature="0"
           sodipodi:nodetypes="cccccc" />
        <path
           id="path3168"
           style="fill:#171717;fill-opacity:1;stroke:none;stroke-width:0.226383"
           d="m 279.29769,1184.265 c 0.0135,-1.0067 -0.0119,0.024 0.002,-3.0289 2.95799,0.028 2.061,-0.013 2.9699,0"
           inkscape:connector-curvature="0"
           sodipodi:nodetypes="ccc" />
        <path
           style="fill:#171717;fill-opacity:1;stroke:none;stroke-width:0.226383"
           id="path3170"
           d="m 291.84712,1201.5804 c -2.34017,-2.2948 0,0 -2.34017,-2.2948 8.02576,-7.9187 0,0 8.02576,-7.9187 2.21154,2.1629 0,0 2.21154,2.1629 -7.83767,8.0625 0,0 -7.83767,8.0625 -0.0205,0 -0.0476,-0.01 -0.0594,-0.012 z"
           inkscape:connector-curvature="0"
           sodipodi:nodetypes="cccccsc" />
        <path
           style="fill:#171717;fill-opacity:1;stroke:none;stroke-width:0.226383"
           id="path3172"
           d="m 289.14484,1198.8781 c -2.34017,-2.2948 0,0 -2.34017,-2.2948 8.02576,-7.9187 0,0 8.02576,-7.9187 2.21154,2.1629 0,0 2.21154,2.1629 0.0119,0.024 0.008,0.07 -0.01,0.1038 -7.82794,7.9587 0.01,-0.1038 -7.82794,7.9587 -0.0205,0 -0.0476,-0.01 -0.0594,-0.012 z"
           inkscape:connector-curvature="0"
           sodipodi:nodetypes="ccccccsc" />
        <path
           style="fill:#171717;fill-opacity:1;stroke:none;stroke-width:0.226383"
           id="path3174"
           d="m 279.39827,1189.3434 0.0422,-0.043 c 2.34774,-2.2785 -0.0422,0.043 2.34774,-2.2785 6.92972,6.9773 0,0 6.92972,6.9773 -2.21155,2.2969 0,0 -2.17695,2.2764 -0.0119,0.011 -0.027,0.02 -0.0346,0.02 z"
           inkscape:connector-curvature="0"
           sodipodi:nodetypes="ccccccc" />
        <path
           style="fill:#171717;fill-opacity:1;stroke:none;stroke-width:0.226383"
           id="path3176"
           d="m 288.97622,1193.7492 c -6.90594,-7.014 0.0249,0.015 -6.90594,-7.014 0,-0.016 2.66229,-2.6753 2.6785,-2.6753 6.95349,7.0454 0,0 6.95349,7.0454 -2.72605,2.6439 0,0 -2.70119,2.659 -0.005,10e-4 -0.0162,-0.01 -0.0249,-0.015 z"
           inkscape:connector-curvature="0"
           sodipodi:nodetypes="ccccccc" />
        <path
           style="fill:#171717;fill-opacity:1;stroke:none;stroke-width:0.226383"
           id="path3178"
           d="m 285.05359,1183.7605 c 9.7e-4,-0.016 2.34018,-2.3596 2.35531,-2.3596 7.0832,6.9221 0,0 7.0832,6.9221 -2.52284,2.5034 0,0 -2.52284,2.5034 -6.91567,-7.0659 0,0 -6.91567,-7.0659 z"
           inkscape:connector-curvature="0"
           sodipodi:nodetypes="ccccc" />
      </g>
      <g
         transform="translate(1.75423,0.0081)"
         id="g3155">
        <path
           sodipodi:nodetypes="cccccc"
           inkscape:connector-curvature="0"
           d="m 280.50891,1181.2322 c 4.64437,0.086 0,0 4.62789,0.086 l -7.56528,7.6215 h -1e-5 v 0 c -0.028,-4.6925 0.006,-0.01 -0.028,-4.6925"
           style="fill:#785b93;fill-opacity:0.74902;stroke:none;stroke-width:0.226383"
           id="path14" />
        <path
           sodipodi:nodetypes="ccc"
           inkscape:connector-curvature="0"
           d="m 277.54346,1184.2569 c 0.0135,-1.0067 -0.0119,0.024 0.002,-3.0289 2.95799,0.028 2.061,-0.013 2.9699,0"
           style="fill:#52346d;fill-opacity:0.74902;stroke:none;stroke-width:0.226383"
           id="path1326" />
        <path
           sodipodi:nodetypes="cccccsc"
           inkscape:connector-curvature="0"
           d="m 290.09289,1201.5723 c -2.34017,-2.2948 0,0 -2.34017,-2.2948 8.02576,-7.9187 0,0 8.02576,-7.9187 2.21154,2.1629 0,0 2.21154,2.1629 -7.83767,8.0625 0,0 -7.83767,8.0625 -0.0205,0 -0.0476,-0.01 -0.0594,-0.012 z"
           id="path4"
           style="fill:#2e0e4d;fill-opacity:0.75;stroke:none;stroke-width:0.226383" />
        <path
           sodipodi:nodetypes="ccccccsc"
           inkscape:connector-curvature="0"
           d="m 287.39061,1198.87 c -2.34017,-2.2948 0,0 -2.34017,-2.2948 8.02576,-7.9187 0,0 8.02576,-7.9187 2.21154,2.1629 0,0 2.21154,2.1629 0.0119,0.024 0.008,0.07 -0.01,0.1038 -7.82794,7.9587 0.01,-0.1038 -7.82794,7.9587 -0.0205,0 -0.0476,-0.01 -0.0594,-0.012 z"
           id="path6"
           style="fill:#5a436e;fill-opacity:0.74902;stroke:none;stroke-width:0.226383" />
        <path
           sodipodi:nodetypes="ccccccc"
           inkscape:connector-curvature="0"
           d="m 277.64404,1189.3353 0.0422,-0.043 c 2.34774,-2.2785 -0.0422,0.043 2.34774,-2.2785 6.92972,6.9773 0,0 6.92972,6.9773 -2.21155,2.2969 0,0 -2.17695,2.2764 -0.0119,0.011 -0.027,0.02 -0.0346,0.02 z"
           id="path8"
           style="fill:#644085;fill-opacity:0.74902;stroke:none;stroke-width:0.226383" />
        <path
           sodipodi:nodetypes="ccccccc"
           inkscape:connector-curvature="0"
           d="m 287.22199,1193.7411 c -6.90594,-7.014 0.0249,0.015 -6.90594,-7.014 0,-0.016 2.66229,-2.6753 2.6785,-2.6753 6.95349,7.0454 0,0 6.95349,7.0454 -2.72605,2.6439 0,0 -2.70119,2.659 -0.005,10e-4 -0.0162,-0.01 -0.0249,-0.015 z"
           id="path10"
           style="fill:#644085;fill-opacity:0.74902;stroke:none;stroke-width:0.226383" />
        <path
           sodipodi:nodetypes="ccccc"
           inkscape:connector-curvature="0"
           d="m 283.29936,1183.7524 c 9.7e-4,-0.016 2.34018,-2.3596 2.35531,-2.3596 7.0832,6.9221 0,0 7.0832,6.9221 -2.52284,2.5034 0,0 -2.52284,2.5034 -6.91567,-7.0659 0,0 -6.91567,-7.0659 z"
           id="path12"
           style="fill:#644085;fill-opacity:0.74902;stroke:none;stroke-width:0.226383" />
      </g>
    </g>
  </g>
</svg>
