<?xml version="1.0" encoding="UTF-8" standalone="no"?>
<!-- Generator: Adobe Illustrator 25.0.0, SVG Export Plug-In . SVG Version: 6.00 Build 0)  -->

<svg
   version="1.0"
   id="svg12484"
   x="0px"
   y="0px"
   width="15.36px"
   height="15.35774px"
   viewBox="0 0 15.36 15.35774"
   enable-background="new 0 0 15.36 15.35774"
   xml:space="preserve"
   sodipodi:docname="DLX_ScreenButtonLight_0.svg"
   inkscape:version="1.1.1 (3bf5ae0d25, 2021-09-20)"
   xmlns:inkscape="http://www.inkscape.org/namespaces/inkscape"
   xmlns:sodipodi="http://sodipodi.sourceforge.net/DTD/sodipodi-0.dtd"
   xmlns="http://www.w3.org/2000/svg"
   xmlns:svg="http://www.w3.org/2000/svg"><defs
   id="defs4872" />
<sodipodi:namedview
   bordercolor="#666666"
   borderopacity="1.0"
   fit-margin-bottom="0"
   fit-margin-left="0"
   fit-margin-right="0"
   fit-margin-top="0"
   id="base"
   inkscape:current-layer="svg12484"
   inkscape:cx="5.1116071"
   inkscape:cy="10.401786"
   inkscape:document-units="mm"
   inkscape:pageopacity="0.0"
   inkscape:pageshadow="2"
   inkscape:window-height="882"
   inkscape:window-maximized="0"
   inkscape:window-width="1600"
   inkscape:window-x="0"
   inkscape:window-y="18"
   inkscape:zoom="22.4"
   pagecolor="#ffffff"
   showgrid="false"
   units="mm"
   inkscape:pagecheckerboard="0">
	</sodipodi:namedview>

<g
   id="g5031"
   transform="matrix(0.7024023,0,0,0.7024023,-3.4204418,1.2046478)"><path
     d="m 20.909872,5.1175105 c 0.0076,-0.1233259 -0.167433,-0.223748 -0.373795,-0.223748 0,0 -4.48388,0.1698142 -9.464693,0 -0.205984,-0.00718 -0.385398,0.1008378 -0.373795,0.223748 0.360189,3.7621002 0,7.9572435 0,7.9572435 0,0.135685 0.167433,0.245896 0.373795,0.245896 0,0 4.421858,-0.160101 9.464693,0 0.205984,0.0064 0.373795,-0.110211 0.373795,-0.245896 0,0 -0.226393,-3.3726349 0,-7.9572435 z"
     style="clip-rule:evenodd;display:inline;fill:#45374e;fill-opacity:1;fill-rule:evenodd;stroke:#6a537e;stroke-width:0.873071;stroke-miterlimit:4;stroke-dasharray:none;stroke-opacity:1"
     id="path1827"
     inkscape:connector-curvature="0"
     sodipodi:nodetypes="sssssssss" /><path
     d="m 19.570861,6.1645946 c 0,-0.091087 -0.12359,-0.1650141 -0.275527,-0.1650141 h -6.983018 c -0.152315,0 -0.275527,0.073965 -0.275527,0.1650141 v 5.8688164 c 0,0.100082 0.12359,0.181342 0.275527,0.181342 h 6.983018 c 0.152315,0 0.275527,-0.08126 0.275527,-0.181342 z"
     style="clip-rule:evenodd;display:inline;fill:#e0e0e0;fill-opacity:0.38039199;fill-rule:evenodd;stroke:none;stroke-width:0.248929;stroke-miterlimit:4;stroke-dasharray:none;stroke-opacity:0.682353"
     id="path1830"
     inkscape:connector-curvature="0"
     sodipodi:nodetypes="sssssssss" /></g></svg>
