<?xml version="1.0" encoding="UTF-8" standalone="no"?>
<svg
   xmlns:dc="http://purl.org/dc/elements/1.1/"
   xmlns:cc="http://creativecommons.org/ns#"
   xmlns:rdf="http://www.w3.org/1999/02/22-rdf-syntax-ns#"
   xmlns:svg="http://www.w3.org/2000/svg"
   xmlns="http://www.w3.org/2000/svg"
   xmlns:sodipodi="http://sodipodi.sourceforge.net/DTD/sodipodi-0.dtd"
   xmlns:inkscape="http://www.inkscape.org/namespaces/inkscape"
   width="1.7617742mm"
   height="2.88556mm"
   viewBox="0 0 1.7617742 2.8855601"
   version="1.1"
   id="svg8513"
   inkscape:version="1.0rc1 (09960d6f05, 2020-04-09)"
   sodipodi:docname="DLX_3b_light_0.svg">
  <defs
     id="defs8507" />
  <sodipodi:namedview
     id="base"
     pagecolor="#ffffff"
     bordercolor="#666666"
     borderopacity="1.0"
     inkscape:pageopacity="0.0"
     inkscape:pageshadow="2"
     inkscape:zoom="15.839192"
     inkscape:cx="7.4111639"
     inkscape:cy="-0.78731889"
     inkscape:document-units="mm"
     inkscape:current-layer="layer1"
     inkscape:document-rotation="0"
     showgrid="false"
     inkscape:window-width="1858"
     inkscape:window-height="1058"
     inkscape:window-x="54"
     inkscape:window-y="-8"
     inkscape:window-maximized="1" />
  <metadata
     id="metadata8510">
    <rdf:RDF>
      <cc:Work
         rdf:about="">
        <dc:format>image/svg+xml</dc:format>
        <dc:type
           rdf:resource="http://purl.org/dc/dcmitype/StillImage" />
        <dc:title />
      </cc:Work>
    </rdf:RDF>
  </metadata>
  <g
     inkscape:label="Layer 1"
     inkscape:groupmode="layer"
     id="layer1"
     transform="translate(-233.46435,-279.08655)">
    <g
       style="font-style:normal;font-variant:normal;font-weight:normal;font-stretch:normal;font-size:3.88056px;line-height:1.25;font-family:'Miriam Libre';-inkscape-font-specification:'Miriam Libre';letter-spacing:0px;word-spacing:0px;display:inline;fill:#cccccc;fill-opacity:1;stroke-width:0.264583"
       id="text1574"
       aria-label="3">
      <path
         id="path840"
         style="font-style:normal;font-variant:normal;font-weight:normal;font-stretch:normal;font-family:'Miriam Libre';-inkscape-font-specification:'Miriam Libre';fill:#cccccc;fill-opacity:1;stroke-width:0.264583"
         d="m 234.32583,281.9721 c 0.49283,0 0.90029,-0.40357 0.90029,-0.89252 0,-0.43851 -0.31821,-0.7994 -0.74895,-0.86149 l 0.51224,-0.70626 c 0.0272,-0.0388 0.0388,-0.0776 0.0388,-0.11254 0,-0.0931 -0.0737,-0.17074 -0.18627,-0.17074 h -1.09819 c -0.031,0 -0.0543,0.0233 -0.0543,0.0543 v 0.18626 c 0,0.031 0.0233,0.0543 0.0543,0.0543 h 0.87312 l -0.64805,0.90805 c -0.008,0.008 -0.0116,0.0233 -0.0116,0.0349 0,0.0155 0.008,0.031 0.0194,0.0388 l 0.14746,0.10478 c 0.008,0.008 0.0194,0.0116 0.031,0.0116 0.0155,0 0.0349,-0.008 0.0427,-0.0233 l 0.0815,-0.10866 c 0.0194,-0.004 0.0427,-0.004 0.0621,-0.004 0.31433,0 0.57821,0.26388 0.57821,0.59373 0,0.33372 -0.26,0.60536 -0.59373,0.60536 -0.22119,0 -0.44626,-0.13194 -0.59761,-0.33761 -0.0155,-0.0233 -0.0388,-0.0349 -0.0621,-0.0349 -0.0155,0 -0.0272,0.004 -0.0388,0.0116 l -0.13194,0.0931 c -0.0194,0.0155 -0.031,0.0388 -0.031,0.0582 0,0.0116 0.004,0.0233 0.008,0.031 0.18238,0.28716 0.50447,0.46566 0.85372,0.46566 z" />
    </g>
  </g>
</svg>
