<?xml version="1.0" encoding="UTF-8" standalone="no"?>
<!-- Generator: Adobe Illustrator 25.0.0, SVG Export Plug-In . SVG Version: 6.00 Build 0)  -->

<svg
   version="1.0"
   id="svg12484"
   x="0px"
   y="0px"
   width="15.36px"
   height="15.35774px"
   viewBox="0 0 15.36 15.35774"
   enable-background="new 0 0 15.36 15.35774"
   xml:space="preserve"
   sodipodi:docname="DLX_2b_light_1.svg"
   inkscape:version="1.1.1 (3bf5ae0d25, 2021-09-20)"
   xmlns:inkscape="http://www.inkscape.org/namespaces/inkscape"
   xmlns:sodipodi="http://sodipodi.sourceforge.net/DTD/sodipodi-0.dtd"
   xmlns="http://www.w3.org/2000/svg"
   xmlns:svg="http://www.w3.org/2000/svg"><defs
   id="defs24" />
<sodipodi:namedview
   bordercolor="#666666"
   borderopacity="1.0"
   fit-margin-bottom="0"
   fit-margin-left="0"
   fit-margin-right="0"
   fit-margin-top="0"
   id="base"
   inkscape:current-layer="svg12484"
   inkscape:cx="9.765625"
   inkscape:cy="6.3839286"
   inkscape:document-units="mm"
   inkscape:pageopacity="0.0"
   inkscape:pageshadow="2"
   inkscape:window-height="882"
   inkscape:window-maximized="0"
   inkscape:window-width="1600"
   inkscape:window-x="0"
   inkscape:window-y="18"
   inkscape:zoom="44.8"
   pagecolor="#ffffff"
   showgrid="false"
   units="mm"
   inkscape:pagecheckerboard="0">
	</sodipodi:namedview>

<g
   style="font-style:normal;font-variant:normal;font-weight:normal;font-stretch:normal;font-size:3.88056px;line-height:1.25;font-family:'Miriam Libre';-inkscape-font-specification:'Miriam Libre';letter-spacing:0px;word-spacing:0px;display:inline;fill:#cccccc;fill-opacity:1;stroke-width:0.264583"
   id="text1564"
   aria-label="1"
   transform="matrix(3.0992126,0,0,3.0992126,494.99427,365.52458)"><g
     style="font-style:normal;font-variant:normal;font-weight:normal;font-stretch:normal;font-size:3.88056px;line-height:1.25;font-family:'Miriam Libre';-inkscape-font-specification:'Miriam Libre';letter-spacing:0px;word-spacing:0px;display:inline;fill:#b8b8b8;fill-opacity:1;stroke-width:0.264583"
     id="text1570"
     aria-label="2"
     transform="matrix(3.7795276,0,0,3.7795276,785.80572,-10.613505)"><path
       id="path11396"
       style="font-style:normal;font-variant:normal;font-weight:normal;font-stretch:normal;font-family:'Miriam Libre';-inkscape-font-specification:'Miriam Libre';fill:#adadad;fill-opacity:1;stroke-width:0.0683141"
       d="m -249.67649,-27.38735 h 0.32363 c 0.006,0 0.011,-0.005 0.011,-0.01203 v -0.0521 c 0,-0.0071 -0.005,-0.01203 -0.011,-0.01203 h -0.28155 v -0.0521 c 0,-0.09418 0.0461,-0.106207 0.16732,-0.184358 0.0912,-0.06012 0.1523,-0.112217 0.1523,-0.216419 0,-0.109211 -0.0772,-0.179347 -0.19838,-0.179347 -0.0611,0 -0.12525,0.01904 -0.17835,0.0531 -0.006,0.003 -0.009,0.009 -0.009,0.01503 0,0.003 0.001,0.006 0.003,0.009 l 0.0211,0.03506 c 0.003,0.005 0.007,0.008 0.011,0.008 0.003,0 0.006,-0.001 0.009,-0.003 0.0411,-0.02404 0.0891,-0.04209 0.13727,-0.04209 0.0731,0 0.12423,0.04108 0.12423,0.112218 0,0.05912 -0.0381,0.09819 -0.0972,0.133257 -0.16833,0.100199 -0.22043,0.128249 -0.22043,0.267519 v 0.08616 c 0,0.01803 0.016,0.03407 0.0361,0.03407 z" /></g></g></svg>
