<?xml version="1.0" encoding="UTF-8" standalone="no"?>
<!-- Generator: Adobe Illustrator 25.0.0, SVG Export Plug-In . SVG Version: 6.00 Build 0)  -->

<svg
   version="1.0"
   id="svg12484"
   x="0px"
   y="0px"
   width="15.36px"
   height="15.35774px"
   viewBox="0 0 15.36 15.35774"
   enable-background="new 0 0 15.36 15.35774"
   xml:space="preserve"
   sodipodi:docname="DLX_3b_light_1.svg"
   inkscape:version="1.1.1 (3bf5ae0d25, 2021-09-20)"
   xmlns:inkscape="http://www.inkscape.org/namespaces/inkscape"
   xmlns:sodipodi="http://sodipodi.sourceforge.net/DTD/sodipodi-0.dtd"
   xmlns="http://www.w3.org/2000/svg"
   xmlns:svg="http://www.w3.org/2000/svg"><defs
   id="defs24" />
<sodipodi:namedview
   bordercolor="#666666"
   borderopacity="1.0"
   fit-margin-bottom="0"
   fit-margin-left="0"
   fit-margin-right="0"
   fit-margin-top="0"
   id="base"
   inkscape:current-layer="svg12484"
   inkscape:cx="9.765625"
   inkscape:cy="6.3839286"
   inkscape:document-units="mm"
   inkscape:pageopacity="0.0"
   inkscape:pageshadow="2"
   inkscape:window-height="882"
   inkscape:window-maximized="0"
   inkscape:window-width="1600"
   inkscape:window-x="0"
   inkscape:window-y="18"
   inkscape:zoom="44.8"
   pagecolor="#ffffff"
   showgrid="false"
   units="mm"
   inkscape:pagecheckerboard="0">
	</sodipodi:namedview>

<g
   style="font-style:normal;font-variant:normal;font-weight:normal;font-stretch:normal;font-size:3.88056px;line-height:1.25;font-family:'Miriam Libre';-inkscape-font-specification:'Miriam Libre';letter-spacing:0px;word-spacing:0px;display:inline;fill:#cccccc;fill-opacity:1;stroke-width:0.264583"
   id="text1564"
   aria-label="1"
   transform="matrix(3.0992126,0,0,3.0992126,494.99427,365.52458)"><g
     style="font-style:normal;font-variant:normal;font-weight:normal;font-stretch:normal;font-size:3.88056px;line-height:1.25;font-family:'Miriam Libre';-inkscape-font-specification:'Miriam Libre';letter-spacing:0px;word-spacing:0px;display:inline;fill:#b8b8b8;fill-opacity:1;stroke-width:0.264583"
     id="text1570"
     aria-label="2"
     transform="matrix(3.7795276,0,0,3.7795276,785.80572,-10.613505)" /></g><g
   style="font-style:normal;font-variant:normal;font-weight:normal;font-stretch:normal;font-size:3.88056px;line-height:1.25;font-family:'Miriam Libre';-inkscape-font-specification:'Miriam Libre';letter-spacing:0px;word-spacing:0px;display:inline;fill:#cccccc;fill-opacity:1;stroke-width:0.264583"
   id="text1574"
   aria-label="3"
   transform="matrix(3.7795276,0,0,3.7795276,-874.21886,-1055.4251)"><path
     id="path840"
     style="font-style:normal;font-variant:normal;font-weight:normal;font-stretch:normal;font-family:'Miriam Libre';-inkscape-font-specification:'Miriam Libre';fill:#adadad;fill-opacity:1;stroke-width:0.211364"
     d="m 233.32021,282.37544 c 0.3937,0 0.7192,-0.3224 0.7192,-0.713 0,-0.35031 -0.2542,-0.63861 -0.5983,-0.68821 l 0.40921,-0.5642 c 0.0217,-0.031 0.031,-0.062 0.031,-0.0899 0,-0.0744 -0.0589,-0.1364 -0.1488,-0.1364 h -0.8773 c -0.0248,0 -0.0434,0.0186 -0.0434,0.0434 v 0.14879 c 0,0.0248 0.0186,0.0434 0.0434,0.0434 h 0.6975 l -0.5177,0.72541 c -0.006,0.006 -0.009,0.0186 -0.009,0.0279 0,0.0124 0.006,0.0248 0.0155,0.031 l 0.1178,0.0837 c 0.006,0.006 0.0155,0.009 0.0248,0.009 0.0124,0 0.0279,-0.006 0.0341,-0.0186 l 0.0651,-0.0868 c 0.0155,-0.003 0.0341,-0.003 0.0496,-0.003 0.25111,0 0.46191,0.2108 0.46191,0.47431 0,0.26659 -0.2077,0.48359 -0.47431,0.48359 -0.1767,0 -0.3565,-0.1054 -0.4774,-0.2697 -0.0124,-0.0186 -0.031,-0.0279 -0.0496,-0.0279 -0.0124,0 -0.0217,0.003 -0.031,0.009 l -0.1054,0.0744 c -0.0155,0.0124 -0.0248,0.031 -0.0248,0.0465 0,0.009 0.003,0.0186 0.006,0.0248 0.14569,0.2294 0.403,0.372 0.682,0.372 z" /></g></svg>
