<?xml version="1.0" encoding="UTF-8" standalone="no"?>
<svg
   xmlns:dc="http://purl.org/dc/elements/1.1/"
   xmlns:cc="http://creativecommons.org/ns#"
   xmlns:rdf="http://www.w3.org/1999/02/22-rdf-syntax-ns#"
   xmlns:svg="http://www.w3.org/2000/svg"
   xmlns="http://www.w3.org/2000/svg"
   xmlns:sodipodi="http://sodipodi.sourceforge.net/DTD/sodipodi-0.dtd"
   xmlns:inkscape="http://www.inkscape.org/namespaces/inkscape"
   width="20.349mm"
   height="20.349mm"
   version="1.1"
   viewBox="0 0 20.349 20.349"
   id="svg6416"
   sodipodi:docname="DLXKnobB_large_light.svg"
   inkscape:version="1.0rc1 (09960d6f05, 2020-04-09)">
  <metadata
     id="metadata6422">
    <rdf:RDF>
      <cc:Work
         rdf:about="">
        <dc:format>image/svg+xml</dc:format>
        <dc:type
           rdf:resource="http://purl.org/dc/dcmitype/StillImage" />
        <dc:title></dc:title>
      </cc:Work>
    </rdf:RDF>
  </metadata>
  <defs
     id="defs6420" />
  <sodipodi:namedview
     showguides="false"
     inkscape:document-rotation="0"
     pagecolor="#ffffff"
     bordercolor="#666666"
     borderopacity="1"
     objecttolerance="10"
     gridtolerance="10"
     guidetolerance="10"
     inkscape:pageopacity="0"
     inkscape:pageshadow="2"
     inkscape:window-width="1858"
     inkscape:window-height="1058"
     id="namedview6418"
     showgrid="false"
     inkscape:document-units="mm"
     inkscape:zoom="8.6791338"
     inkscape:cx="15.981177"
     inkscape:cy="38.671547"
     inkscape:window-x="54"
     inkscape:window-y="-8"
     inkscape:window-maximized="1"
     inkscape:current-layer="svg6416" />
  <path
     transform="scale(0.26458333)"
     d="M 38.535156 2.4960938 C 37.269417 2.4960938 36.032082 3.5408346 36.242188 4.7890625 C 37.549258 12.554484 36.150206 19.750752 34.890625 24.355469 A 14.545512 14.545512 0 0 1 34.900391 24.353516 A 14.545512 14.545512 0 0 1 35.210938 24.277344 A 14.545512 14.545512 0 0 1 35.525391 24.208984 A 14.545512 14.545512 0 0 1 35.839844 24.148438 A 14.545512 14.545512 0 0 1 36.15625 24.09375 A 14.545512 14.545512 0 0 1 36.472656 24.046875 A 14.545512 14.545512 0 0 1 36.791016 24.005859 A 14.545512 14.545512 0 0 1 37.109375 23.972656 A 14.545512 14.545512 0 0 1 37.429688 23.945312 A 14.545512 14.545512 0 0 1 37.75 23.925781 A 14.545512 14.545512 0 0 1 38.070312 23.914062 A 14.545512 14.545512 0 0 1 38.390625 23.908203 A 14.545512 14.545512 0 0 1 38.46875 23.908203 A 14.545512 14.545512 0 0 1 38.789062 23.912109 A 14.545512 14.545512 0 0 1 39.109375 23.921875 A 14.545512 14.545512 0 0 1 39.429688 23.939453 A 14.545512 14.545512 0 0 1 39.75 23.964844 A 14.545512 14.545512 0 0 1 40.068359 23.996094 A 14.545512 14.545512 0 0 1 40.386719 24.035156 A 14.545512 14.545512 0 0 1 40.705078 24.082031 A 14.545512 14.545512 0 0 1 41.021484 24.134766 A 14.545512 14.545512 0 0 1 41.335938 24.193359 A 14.545512 14.545512 0 0 1 41.650391 24.259766 A 14.545512 14.545512 0 0 1 41.960938 24.333984 A 14.545512 14.545512 0 0 1 42.236328 24.404297 C 40.980871 20.045643 39.467445 13.292649 40.828125 4.7890625 C 41.0281 3.5392004 39.800897 2.4960938 38.535156 2.4960938 z "
     style="stroke-width:0.999991;fill:#c3c3c3;fill-opacity:1"
     id="path1451" />
  <ellipse
     ry="10.042119"
     rx="10.04249"
     id="circle6408"
     stroke="#8b70a2"
     fill="none"
     cy="10.174273"
     cx="10.178117"
     style="stroke-width:0.264581" />
</svg>
