<?xml version="1.0" encoding="UTF-8" standalone="no"?>
<svg
   xmlns:dc="http://purl.org/dc/elements/1.1/"
   xmlns:cc="http://creativecommons.org/ns#"
   xmlns:rdf="http://www.w3.org/1999/02/22-rdf-syntax-ns#"
   xmlns:svg="http://www.w3.org/2000/svg"
   xmlns="http://www.w3.org/2000/svg"
   xmlns:sodipodi="http://sodipodi.sourceforge.net/DTD/sodipodi-0.dtd"
   xmlns:inkscape="http://www.inkscape.org/namespaces/inkscape"
   sodipodi:docname="DLXKnobB_medium_light.svg"
   inkscape:version="1.0rc1 (09960d6f05, 2020-04-09)"
   id="svg58192"
   version="1.1"
   viewBox="0 0 9.5617208 9.5617199"
   height="9.5617199mm"
   width="9.5617208mm">
  <defs
     id="defs58186" />
  <sodipodi:namedview
     inkscape:window-maximized="1"
     inkscape:window-y="-8"
     inkscape:window-x="54"
     inkscape:window-height="1058"
     inkscape:window-width="1858"
     showgrid="false"
     inkscape:document-rotation="0"
     inkscape:current-layer="layer1"
     inkscape:document-units="mm"
     inkscape:cy="39.225489"
     inkscape:cx="-10.186029"
     inkscape:zoom="5.6"
     inkscape:pageshadow="2"
     inkscape:pageopacity="0.0"
     borderopacity="1.0"
     bordercolor="#666666"
     pagecolor="#ffffff"
     id="base" />
  <metadata
     id="metadata58189">
    <rdf:RDF>
      <cc:Work
         rdf:about="">
        <dc:format>image/svg+xml</dc:format>
        <dc:type
           rdf:resource="http://purl.org/dc/dcmitype/StillImage" />
        <dc:title></dc:title>
      </cc:Work>
    </rdf:RDF>
  </metadata>
  <g
     transform="translate(-101.05247,-143.38581)"
     id="layer1"
     inkscape:groupmode="layer"
     inkscape:label="Layer 1">
    <g
       style="display:inline"
       transform="translate(-12.127467,112.766)"
       id="g3218">
      <g
         transform="translate(53.102429,-5.8533681)"
         style="display:inline"
         id="g5825">
        <path
           id="path6758-8"
           style="fill:none;stroke:#8b70a2;stroke-width:0.264583;stroke-opacity:0.57999998"
           d="m 69.50694,41.254038 a 4.6485694,4.6485694 0 0 1 -4.648568,4.648568 4.6485694,4.6485694 0 0 1 -4.64857,-4.648568 4.6485694,4.6485694 0 0 1 4.64857,-4.648569 4.6485694,4.6485694 0 0 1 4.648568,4.648569"
           inkscape:connector-curvature="0" />
      </g>
      <path
         sodipodi:nodetypes="sssssscs"
         inkscape:connector-curvature="0"
         id="path3068"
         style="clip-rule:evenodd;display:inline;fill:#c3c3c3;fill-opacity:0.57999998;fill-rule:evenodd;stroke-width:0.264582;stroke-linejoin:round;stroke-miterlimit:2"
         d="m 118.11806,31.50906 c 0.0209,-0.20307 0.0477,-0.369987 -0.15642,-0.369987 -0.20414,0 -0.16628,0.165629 -0.15626,0.369512 0.0617,1.257815 -0.0173,1.301499 -0.21333,2.48463 -0.0334,0.201381 0.16545,0.369987 0.36959,0.369987 0.20413,0 0.4005,-0.16818 0.36976,-0.369987 -0.18174,-1.19384 -0.26109,-1.197393 -0.21334,-2.484155 z" />
    </g>
  </g>
</svg>
