<?xml version="1.0" encoding="UTF-8" standalone="no"?>
<svg
   xmlns:dc="http://purl.org/dc/elements/1.1/"
   xmlns:cc="http://creativecommons.org/ns#"
   xmlns:rdf="http://www.w3.org/1999/02/22-rdf-syntax-ns#"
   xmlns:svg="http://www.w3.org/2000/svg"
   xmlns="http://www.w3.org/2000/svg"
   xmlns:sodipodi="http://sodipodi.sourceforge.net/DTD/sodipodi-0.dtd"
   xmlns:inkscape="http://www.inkscape.org/namespaces/inkscape"
   sodipodi:docname="DLXKnob.svg"
   inkscape:version="1.0rc1 (09960d6f05, 2020-04-09)"
   id="svg9240"
   version="1.1"
   viewBox="0 0 8.121915 8.121915"
   height="30.697001"
   width="30.697001">
  <defs
     id="defs9234" />
  <sodipodi:namedview
     inkscape:window-maximized="1"
     inkscape:window-y="-8"
     inkscape:window-x="54"
     inkscape:window-height="1058"
     inkscape:window-width="1858"
     units="px"
     showgrid="false"
     inkscape:document-rotation="0"
     inkscape:current-layer="layer1"
     inkscape:document-units="px"
     inkscape:cy="43.851648"
     inkscape:cx="15.537969"
     inkscape:zoom="7.9195959"
     inkscape:pageshadow="2"
     inkscape:pageopacity="0.0"
     borderopacity="1.0"
     bordercolor="#666666"
     pagecolor="#ffffff"
     id="base" />
  <metadata
     id="metadata9237">
    <rdf:RDF>
      <cc:Work
         rdf:about="">
        <dc:format>image/svg+xml</dc:format>
        <dc:type
           rdf:resource="http://purl.org/dc/dcmitype/StillImage" />
        <dc:title></dc:title>
      </cc:Work>
    </rdf:RDF>
  </metadata>
  <g
     id="layer1"
     inkscape:groupmode="layer"
     inkscape:label="Layer 1">
    <g
       transform="translate(0,-11.874989)"
       id="g9842">
      <path
         sodipodi:type="star"
         style="clip-rule:evenodd;display:inline;fill:#000000;fill-opacity:0.901961;fill-rule:evenodd;stroke:#635073;stroke-width:0.264583;stroke-linejoin:round;stroke-miterlimit:2;stroke-opacity:1"
         id="path21976"
         sodipodi:sides="200"
         sodipodi:cx="4.0609574"
         sodipodi:cy="15.935946"
         sodipodi:r1="3.9294391"
         sodipodi:r2="1.9647195"
         sodipodi:arg1="0.90365567"
         sodipodi:arg2="0.91936363"
         inkscape:flatsided="false"
         inkscape:rounded="0"
         inkscape:randomized="0"
         inkscape:transform-center-x="0.20992748"
         inkscape:transform-center-y="-1.4704745"
         d="M 6.4922673,19.02289 5.2522186,17.498323 6.3941044,19.097737 5.2025554,17.53497 6.2936389,19.169462 5.1517655,17.57004 6.19097,19.237997 5.0998992,17.603496 6.0861991,19.303273 5.0470075,17.635308 5.9794295,19.365226 4.9931427,17.665442 5.8707665,19.423794 4.938358,17.693869 5.7603176,19.478921 4.8827074,17.720561 5.6481915,19.530551 4.8262458,17.745492 5.5344991,19.578633 4.7690289,17.768638 5.4193524,19.623121 4.7111133,17.789975 5.3028652,19.66397 4.6525561,17.809482 5.1851523,19.701139 4.593415,17.82714 5.06633,19.734593 4.5337485,17.842931 l 0.4127671,1.921367 -0.4729003,-1.907457 0.3522119,1.933384 -0.4127523,-1.92137 0.291309,1.943494 -0.3521968,-1.933387 0.2301186,1.951684 -0.2912939,-1.943495 0.1687012,1.95795 -0.2301036,-1.951687 0.1071173,1.962283 -0.168686,-1.957951 0.045428,1.964679 -0.1071021,-1.962284 -0.016307,1.965137 -0.045412,-1.96468 -0.078025,1.963655 0.016322,-1.965136 -0.1396666,1.960234 0.07804,-1.963654 -0.2011702,1.954881 0.1396818,-1.960234 -0.2624752,1.947597 0.2011853,-1.954879 -0.3235212,1.938392 0.2624903,-1.947595 -0.3842479,1.927273 0.3235362,-1.938389 -0.4445954,1.914252 0.3842629,-1.92727 -0.5045042,1.899343 0.4446103,-1.914249 -0.563915,1.882559 0.5045188,-1.899339 -0.6227693,1.863917 0.5639296,-1.882555 -0.6810091,1.843436 0.6227838,-1.863912 -0.7385768,1.821134 0.6810234,-1.84343 -0.7954156,1.797037 0.7385909,-1.821129 -0.8514693,1.771166 0.7954294,-1.797031 -0.9066828,1.743546 0.8514831,-1.771159 -0.9610016,1.714207 0.9066963,-1.74354 -1.0143719,1.683175 0.9610149,-1.714199 -1.0667412,1.650482 1.014385,-1.683167 -1.1180577,1.616161 1.0667539,-1.650474 -1.1682708,1.580244 1.1180702,-1.616152 -1.217331,1.542768 1.1682831,-1.580235 -1.2651899,1.50377 1.217343,-1.542759 -1.3118001,1.463287 1.2652015,-1.50376 -1.3571157,1.42136 1.3118114,-1.463276 -1.4010921,1.37803 1.3571268,-1.421349 -1.4436858,1.333341 1.4011028,-1.37802 L 1.132768,18.55629 2.5764641,17.222959 1.0519059,18.46302 2.5367705,17.175695 0.9740134,18.367256 2.4985812,17.127208 0.89916733,18.269093 2.4619337,17.077544 0.82744156,18.168628 2.4268642,17.026755 0.75890689,18.065959 2.3934075,16.974888 0.69363094,17.961188 2.3615963,16.921997 0.63167813,17.854418 2.3314623,16.868132 0.57310961,17.745756 2.303035,16.813347 0.51798318,17.635307 2.2763427,16.757696 0.46635323,17.523181 2.2514115,16.701235 0.41827072,17.409488 2.2282661,16.644018 0.37378311,17.294341 2.2069293,16.586102 0.33293429,17.177854 2.1874223,16.527545 0.29576458,17.060141 2.1697642,16.468404 0.26231066,16.941319 2.1539725,16.408737 0.23260555,16.821505 2.1400628,16.348604 0.20667855,16.700816 2.1280487,16.288064 0.18455527,16.579373 2.1179422,16.227176 0.16625752,16.457295 2.1097532,16.166001 0.15180338,16.334702 2.1034898,16.104598 0.1412071,16.211716 2.0991583,16.04303 0.13447913,16.088457 2.0967627,15.981355 0.13162613,15.965048 2.0963056,15.919636 0.13265091,15.841611 2.0977874,15.857933 0.13755244,15.718266 2.1012065,15.796307 0.14632591,15.595137 2.1065597,15.734818 0.15896264,15.472343 2.1138417,15.673528 0.17545017,15.350007 2.1230452,15.612498 0.19577223,15.22825 2.1341613,15.551786 0.21990876,15.10719 2.1471788,15.491453 0.24783594,14.986949 2.162085,15.431559 0.27952621,14.867644 2.1788652,15.372163 0.3149483,14.749394 2.1975027,15.313324 0.35406724,14.632314 2.2179793,15.255098 0.39684444,14.516521 2.2402746,15.197545 0.44323768,14.402129 2.2643668,15.14072 0.49320117,14.289251 2.290232,15.08468 0.5466856,14.177997 2.3178446,15.02948 0.6036382,14.068479 2.3471775,14.975175 0.66400275,13.960803 2.3782017,14.921818 0.72771969,13.855077 2.4108866,14.869462 0.79472612,13.751404 2.4451999,14.818158 0.86495594,13.649887 2.4811078,14.767958 0.93833982,13.550627 2.5185747,14.71891 1.0148054,13.45372 2.5575638,14.671063 1.0942771,13.359263 2.5980366,14.624464 1.1766765,13.267348 2.6399532,14.57916 1.2619224,13.178068 2.683272,14.535195 1.3499307,13.091509 2.7279505,14.492612 1.4406143,13.007757 2.7739445,14.451453 1.533884,12.926895 2.8212086,14.41176 1.6296475,12.849002 2.8696962,14.37357 1.7278105,12.774156 l 1.191549,1.562767 -1.0910835,-1.634492 1.1418733,1.599422 -1.0392044,-1.667957 1.0910708,1.6345 -0.9862999,-1.699776 1.0391916,1.667965 -0.932422,-1.729918 0.9862867,1.699784 -0.8776238,-1.758352 0.9324086,1.729925 -0.8219596,-1.785052 0.8776102,1.75836 -0.7654841,-1.80999 0.8219457,1.785059 -0.7082533,-1.833141 0.7654701,1.809995 -0.6503234,-1.854483 0.708239,1.833146 -0.5917518,-1.873995 0.6503091,1.854488 -0.5325963,-1.891657 0.5917374,1.873999 -0.4729151,-1.907453 0.5325816,1.891662 -0.4127671,-1.921367 0.4729002,1.907457 -0.3522118,-1.933384 0.4127522,1.92137 -0.291309,-1.943494 0.3521969,1.933387 -0.2301186,-1.951684 0.2912939,1.943495 -0.1687012,-1.95795 0.2301035,1.951687 -0.1071172,-1.962283 0.168686,1.957951 -0.045428,-1.964679 0.107102,1.962284 0.016307,-1.965137 0.045412,1.96468 0.078025,-1.963655 -0.016322,1.965136 0.1396667,-1.960235 -0.078041,1.963655 L 4.4017674,12.021315 4.2620856,13.981549 4.5245608,12.033952 4.3233754,13.988831 4.6468966,12.050439 4.3844063,13.998034 4.7686542,12.070761 4.445118,14.00915 4.8897134,12.094898 4.5054506,14.022168 5.0099547,12.122825 4.5653445,14.037074 5.1292595,12.154515 4.6247406,14.053854 5.24751,12.189937 4.6835804,14.072492 5.3645895,12.229056 4.7418057,14.092968 5.4803825,12.271833 4.7993591,14.115264 5.5947746,12.318227 4.8561837,14.139356 5.7076531,12.36819 4.9122236,14.165221 5.8189065,12.421675 4.9674234,14.192834 5.928425,12.478627 5.0217286,14.222167 6.0361005,12.538992 5.0750857,14.253191 6.1418268,12.602709 5.1274419,14.285876 6.2454996,12.669715 5.1787456,14.320189 6.3470165,12.739945 5.2289462,14.356097 6.4462773,12.813329 5.2779942,14.393564 6.543184,12.889794 5.3258411,14.432553 6.6376412,12.969266 5.3724396,14.473026 6.7295554,13.051666 5.417744,14.514942 6.8188361,13.136911 5.4617093,14.558261 6.905395,13.22492 5.5042922,14.60294 6.9891469,13.315603 5.5454508,14.648934 7.070009,13.408873 5.5851444,14.696198 7.1479015,13.504637 5.6233337,14.744685 7.2227475,13.6028 5.6599812,14.794349 7.2944733,13.703265 5.6950506,14.845138 7.363008,13.805934 l -1.6345006,1.091071 1.6997765,-0.9863 -1.6679654,1.039191 1.7299182,-0.932422 -1.6997841,0.986287 1.7583526,-0.877624 -1.7299254,0.932409 1.7850519,-0.82196 -1.7583595,0.877611 1.8099894,-0.765485 -1.7850582,0.821946 1.8331407,-0.708253 -1.8099953,0.76547 1.854483,-0.650324 -1.8331463,0.70824 1.8739951,-0.591752 -1.854488,0.650309 1.8916577,-0.532596 -1.8739997,0.591737 1.9074536,-0.472915 -1.8916618,0.532581 1.9213669,-0.412767 -1.9074572,0.472901 1.9333842,-0.352212 -1.9213702,0.412752 1.9434935,-0.291309 -1.9333869,0.352197 1.9516846,-0.230119 -1.9434957,0.291294 1.9579499,-0.168701 -1.9516865,0.230103 1.9622828,-0.107117 -1.9579512,0.168686 1.9646791,-0.04543 -1.9622836,0.107102 1.9651366,0.01631 -1.9646794,0.04541 1.9636547,0.07803 -1.9651365,-0.01632 1.9602349,0.139667 -1.9636541,-0.07804 1.9548807,0.20117 -1.9602339,-0.139681 1.9475971,0.262475 -1.954879,-0.201186 1.9383915,0.323522 -1.9475951,-0.262491 1.927273,0.384248 -1.938389,-0.323536 1.9142525,0.444595 -1.92727,-0.384262 1.8993428,0.504504 -1.914249,-0.44461 1.8825588,0.563915 -1.899339,-0.504519 1.8639169,0.622769 -1.8825544,-0.56393 1.8434354,0.68101 -1.863912,-0.622784 1.8211348,0.738576 -1.8434302,-0.681023 1.797037,0.795416 -1.8211291,-0.738591 1.7711656,0.851469 -1.7970308,-0.795429 1.7435464,0.906683 -1.7711591,-0.851484 1.7142065,0.961002 -1.7435394,-0.906696 1.6831748,1.014372 -1.714199,-0.961015 1.6504821,1.066741 -1.6831669,-1.014385 1.6161604,1.118058 -1.6504737,-1.066754 1.5802439,1.16827 -1.6161518,-1.11807 1.5427679,1.217331 -1.5802349,-1.168283 1.5037694,1.26519 L 5.564351,17.20083 7.0276378,18.51263 5.5238782,17.247429 6.9452383,18.604544 5.4819617,17.292733 6.8599924,18.693825 5.4386428,17.336698 6.7719842,18.780384 5.3939644,17.379281 6.6813005,18.864136 5.3479704,17.42044 6.5880309,18.944998 5.3007062,17.460133 Z" />
      <circle
         id="circle21962"
         style="clip-rule:evenodd;display:inline;fill:#302738;fill-opacity:1;fill-rule:evenodd;stroke-width:0.264583;stroke-linejoin:round;stroke-miterlimit:2"
         r="3.5919843"
         cy="15.935946"
         cx="4.0609574" />
      <path
         sodipodi:nodetypes="sssssss"
         inkscape:connector-curvature="0"
         id="path21964"
         style="clip-rule:evenodd;display:inline;fill:#c3c3c3;fill-opacity:1;fill-rule:evenodd;stroke-width:0.264583;stroke-linejoin:round;stroke-miterlimit:2"
         d="m 4.2915104,12.669597 c 0.019579,-0.122367 -0.1005755,-0.224499 -0.224499,-0.224499 -0.1239234,0 -0.2450682,0.102294 -0.2244989,0.224499 0.2058299,1.222872 -0.2784761,2.392532 -0.2784761,2.392532 0,0.123923 0.3790516,-0.114516 0.502975,-0.114516 0.1239235,0 0.4908672,0.226332 0.4908672,0.102408 0,0 -0.4600906,-1.169659 -0.2663682,-2.380424 z" />
    </g>
  </g>
</svg>
