<?xml version="1.0" encoding="UTF-8" standalone="no"?>
<!-- Generator: Adobe Illustrator 25.2.3, SVG Export Plug-In . SVG Version: 6.00 Build 0)  -->

<svg
   version="1.0"
   id="svg111794"
   x="0px"
   y="0px"
   width="53.85929px"
   height="53.85937px"
   viewBox="0 0 53.85929 53.85937"
   enable-background="new 0 0 53.85929 53.85937"
   xml:space="preserve"
   sodipodi:docname="RoundHugeBlackKnobDonut.svg"
   inkscape:version="1.1.1 (3bf5ae0d25, 2021-09-20)"
   xmlns:inkscape="http://www.inkscape.org/namespaces/inkscape"
   xmlns:sodipodi="http://sodipodi.sourceforge.net/DTD/sodipodi-0.dtd"
   xmlns="http://www.w3.org/2000/svg"
   xmlns:svg="http://www.w3.org/2000/svg"><defs
   id="defs18" />
<sodipodi:namedview
   bordercolor="#666666"
   borderopacity="1.0"
   fit-margin-bottom="0"
   fit-margin-left="0"
   fit-margin-right="0"
   fit-margin-top="0"
   id="base"
   inkscape:current-layer="svg111794"
   inkscape:cx="24.88132"
   inkscape:cy="10.827573"
   inkscape:document-units="mm"
   inkscape:pageopacity="0.0"
   inkscape:pageshadow="2"
   inkscape:window-height="1041"
   inkscape:window-maximized="0"
   inkscape:window-width="1904"
   inkscape:window-x="62"
   inkscape:window-y="0"
   inkscape:zoom="11.313709"
   pagecolor="#ffffff"
   showgrid="false"
   inkscape:pagecheckerboard="0">
	</sodipodi:namedview>
<g
   id="g15">
	<path
   opacity="0.4"
   enable-background="new    "
   d="M27.78839,0.03321l0.00155,1.61194   c-0.2942-0.00985-0.58791-0.02177-0.88466-0.02149c-0.29675,0.00029-0.59044,0.01277-0.88462,0.02319L26.0191,0.03491   C11.56338,0.51658-0.00286,12.38609,0.01114,26.95603C0.02542,41.82261,12.08888,53.8629,26.95545,53.84861   c14.86669-0.01428,26.90699-12.07774,26.8927-26.94431C53.83415,12.33437,42.24513,0.4871,27.78839,0.03321z M26.90635,2.74866   c0.29675-0.00029,0.59047,0.01115,0.88466,0.02149l0.00089,0.92432C40.25108,4.14734,50.2194,14.35933,50.23145,26.90778   c0.01234,12.8446-10.41027,23.26721-23.27952,23.27958C14.08267,50.19973,3.64006,39.79716,3.62772,26.95256   C3.61566,14.4041,13.56433,4.17298,26.02262,3.69617l-0.00089-0.92432C26.31591,2.76095,26.6096,2.74895,26.90635,2.74866z"
   id="path3" />
	<path
   opacity="0.82"
   fill="#1E1D1E"
   enable-background="new    "
   d="M26.90527,1.62366   C12.90198,1.63712,1.56107,12.9781,1.57449,26.95453s11.37612,25.2956,25.37941,25.28214s25.34433-11.35443,25.3309-25.33087   S40.90856,1.61021,26.90527,1.62366z M26.95282,51.11168C13.57209,51.12453,2.7144,40.30854,2.70157,26.95345   S13.52562,2.76152,26.90635,2.74866C40.28708,2.73581,51.14477,13.5518,51.1576,26.90689S40.33355,51.09882,26.95282,51.11168z"
   id="path5" />
	<path
   id="path7"
   d="M 27.791016 3.671875 L 26.023438 3.6738281 L 26.035156 15.664062 A 11.338582 11.329134 0 0 1 26.929688 15.599609 A 11.338582 11.329134 0 0 1 27.802734 15.636719 L 27.791016 3.671875 z "
   style="fill:#ededed;fill-opacity:1" />
	<rect
   x="26.01988"
   y="0.01159"
   opacity="0.71"
   fill="#FFFFFF"
   enable-background="new    "
   width="1.76925"
   height="1.61208"
   id="rect9" />
	<rect
   x="26.0212"
   y="1.62368"
   fill="#D9D9D9"
   width="1.76925"
   height="1.12499"
   id="rect11" />
	<rect
   x="26.02218"
   y="2.74867"
   opacity="0.71"
   fill="#FFFFFF"
   enable-background="new    "
   width="1.76925"
   height="0.92431"
   id="rect13" />
</g>
</svg>
