<?xml version="1.0" encoding="UTF-8" standalone="no"?>
<svg
   xmlns:dc="http://purl.org/dc/elements/1.1/"
   xmlns:cc="http://creativecommons.org/ns#"
   xmlns:rdf="http://www.w3.org/1999/02/22-rdf-syntax-ns#"
   xmlns:svg="http://www.w3.org/2000/svg"
   xmlns="http://www.w3.org/2000/svg"
   xmlns:sodipodi="http://sodipodi.sourceforge.net/DTD/sodipodi-0.dtd"
   xmlns:inkscape="http://www.inkscape.org/namespaces/inkscape"
   sodipodi:docname="PencilLight.svg"
   inkscape:version="1.0rc1 (09960d6f05, 2020-04-09)"
   id="svg5894"
   version="1.1"
   viewBox="0 0 3.187 3.1730001"
   height="3.1730001mm"
   width="3.187mm">
  <defs
     id="defs5888" />
  <sodipodi:namedview
     inkscape:window-maximized="1"
     inkscape:window-y="-8"
     inkscape:window-x="54"
     inkscape:window-height="1058"
     inkscape:window-width="1858"
     showgrid="false"
     inkscape:document-rotation="0"
     inkscape:current-layer="layer1"
     inkscape:document-units="mm"
     inkscape:cy="2.7956801"
     inkscape:cx="10.688002"
     inkscape:zoom="22.4"
     inkscape:pageshadow="2"
     inkscape:pageopacity="0.0"
     borderopacity="1.0"
     bordercolor="#666666"
     pagecolor="#ffffff"
     id="base" />
  <metadata
     id="metadata5891">
    <rdf:RDF>
      <cc:Work
         rdf:about="">
        <dc:format>image/svg+xml</dc:format>
        <dc:type
           rdf:resource="http://purl.org/dc/dcmitype/StillImage" />
        <dc:title></dc:title>
      </cc:Work>
    </rdf:RDF>
  </metadata>
  <g
     id="layer1"
     inkscape:groupmode="layer"
     inkscape:label="Layer 1">
    <g
       style="stroke-width:2.26383"
       id="g6491"
       transform="matrix(0.15583204,0,0,-0.15583204,-48.52317,187.24658)">
      <path
         sodipodi:nodetypes="ccc"
         inkscape:connector-curvature="0"
         d="m 311.38352,1184.265 c 0.0135,-1.0067 -0.0119,0.024 0.002,-3.0289 2.95799,0.028 2.061,-0.013 2.9699,0"
         style="fill:#423055;fill-opacity:1;stroke:none;stroke-width:0.226383"
         id="path6477" />
      <path
         sodipodi:nodetypes="cccccc"
         inkscape:connector-curvature="0"
         d="m 314.34897,1181.2403 c 4.64437,0.086 0,0 4.62789,0.086 l -7.56528,7.6215 h -1e-5 v 0 c -0.028,-4.6925 0.006,-0.01 -0.028,-4.6925"
         style="fill:#7f6f8e;fill-opacity:1;stroke:none;stroke-width:0.226383"
         id="path6479" />
      <path
         sodipodi:nodetypes="cccccsc"
         inkscape:connector-curvature="0"
         d="m 323.93295,1201.5804 c -2.34017,-2.2948 0,0 -2.34017,-2.2948 8.02576,-7.9187 0,0 8.02576,-7.9187 2.21154,2.1629 0,0 2.21154,2.1629 -7.83767,8.0625 0,0 -7.83767,8.0625 -0.0205,0 -0.0475,-0.01 -0.0597,-0.012 z"
         id="path6481"
         style="fill:#604579;fill-opacity:1;stroke:none;stroke-width:0.226383" />
      <path
         sodipodi:nodetypes="ccccccsc"
         inkscape:connector-curvature="0"
         d="m 321.23067,1198.8781 c -2.34017,-2.2948 0,0 -2.34017,-2.2948 8.02576,-7.9187 0,0 8.02576,-7.9187 2.21154,2.1629 0,0 2.21154,2.1629 0.0122,0.024 0.008,0.07 -0.01,0.1038 -7.82793,7.9587 0.01,-0.1038 -7.82793,7.9587 -0.0205,0 -0.0475,-0.01 -0.0597,-0.012 z"
         id="path6483"
         style="fill:#564e5c;fill-opacity:1;stroke:none;stroke-width:0.226383" />
      <path
         sodipodi:nodetypes="ccccccc"
         inkscape:connector-curvature="0"
         d="m 311.4841,1189.3434 0.0422,-0.043 c 2.34774,-2.2785 -0.0422,0.043 2.34774,-2.2785 6.92971,6.9773 0,0 6.92971,6.9773 -2.21154,2.2969 0,0 -2.17694,2.2764 -0.0119,0.011 -0.027,0.02 -0.0346,0.02 z"
         id="path6485"
         style="fill:#7e7e58;fill-opacity:1;stroke:none;stroke-width:0.226383" />
      <path
         sodipodi:nodetypes="ccccccc"
         inkscape:connector-curvature="0"
         d="m 321.06205,1193.7492 c -6.90594,-7.014 0.025,0.015 -6.90594,-7.014 0,-0.016 2.66229,-2.6753 2.6785,-2.6753 6.9535,7.0454 0,0 6.9535,7.0454 -2.72606,2.6439 0,0 -2.7012,2.659 -0.005,0 -0.016,-0.01 -0.025,-0.015 z"
         id="path6487"
         style="fill:#7e7e58;fill-opacity:1;stroke:none;stroke-width:0.226383" />
      <path
         sodipodi:nodetypes="ccccc"
         inkscape:connector-curvature="0"
         d="m 317.13942,1183.7605 c 9.7e-4,-0.016 2.34018,-2.3596 2.35531,-2.3596 7.08321,6.9221 0,0 7.08321,6.9221 -2.52285,2.5034 0,0 -2.52285,2.5034 -6.91567,-7.0659 0,0 -6.91567,-7.0659 z"
         id="path6489"
         style="fill:#7e7e58;fill-opacity:1;stroke:none;stroke-width:0.226383" />
    </g>
  </g>
</svg>
